<?xml version="1.0" encoding="UTF-8"?>
<svg xmlns="http://www.w3.org/2000/svg" xmlns:xlink="http://www.w3.org/1999/xlink" width="36pt" height="36pt" viewBox="0 0 36 36" version="1.1">
<g id="surface1">
<path style=" stroke:none;fill-rule:nonzero;fill:rgb(78.039216%,0%,0%);fill-opacity:1;" d="M 0 18 C 0.00390625 13.226562 1.902344 8.652344 5.277344 5.277344 C 8.652344 1.902344 13.226562 0.00390625 18 0 C 22.773438 0.00390625 27.347656 1.902344 30.722656 5.277344 C 34.097656 8.652344 35.996094 13.226562 36 18 C 35.996094 22.773438 34.097656 27.347656 30.722656 30.722656 C 27.347656 34.097656 22.773438 35.996094 18 36 C 13.226562 35.996094 8.652344 34.097656 5.277344 30.722656 C 1.902344 27.347656 0.00390625 22.773438 0 18 Z M 2.398438 18 C 2.40625 22.136719 4.050781 26.101562 6.972656 29.027344 C 9.898438 31.949219 13.863281 33.59375 18 33.601562 C 22.136719 33.59375 26.101562 31.949219 29.027344 29.027344 C 31.949219 26.101562 33.59375 22.136719 33.601562 18 C 33.59375 13.863281 31.949219 9.898438 29.027344 6.972656 C 26.101562 4.050781 22.136719 2.40625 18 2.398438 C 13.863281 2.40625 9.898438 4.050781 6.972656 6.972656 C 4.050781 9.898438 2.40625 13.863281 2.398438 18 Z M 2.398438 18 "/>
<path style=" stroke:none;fill-rule:nonzero;fill:rgb(78.039216%,0%,0%);fill-opacity:1;" d="M 23.136719 24.199219 L 17.832031 18.894531 L 12.53125 24.199219 C 12.390625 24.339844 12.199219 24.417969 12 24.417969 C 11.800781 24.417969 11.613281 24.339844 11.472656 24.199219 C 11.332031 24.058594 11.25 23.863281 11.25 23.667969 C 11.25 23.46875 11.332031 23.277344 11.472656 23.136719 L 16.773438 17.835938 L 11.472656 12.535156 C 11.402344 12.464844 11.347656 12.382812 11.308594 12.289062 C 11.269531 12.199219 11.25 12.101562 11.25 12.003906 C 11.25 11.90625 11.269531 11.808594 11.308594 11.714844 C 11.347656 11.625 11.402344 11.542969 11.472656 11.472656 C 11.542969 11.402344 11.625 11.347656 11.714844 11.308594 C 11.804688 11.273438 11.902344 11.253906 12.003906 11.253906 C 12.101562 11.253906 12.199219 11.273438 12.289062 11.308594 C 12.378906 11.347656 12.460938 11.40625 12.53125 11.472656 L 17.832031 16.773438 L 23.136719 11.46875 C 23.203125 11.398438 23.289062 11.34375 23.378906 11.304688 C 23.46875 11.269531 23.566406 11.25 23.664062 11.25 C 23.765625 11.25 23.863281 11.269531 23.953125 11.304688 C 24.042969 11.34375 24.125 11.398438 24.195312 11.46875 C 24.265625 11.539062 24.324219 11.621094 24.359375 11.710938 C 24.398438 11.800781 24.417969 11.898438 24.417969 12 C 24.417969 12.097656 24.398438 12.195312 24.359375 12.285156 C 24.324219 12.378906 24.265625 12.460938 24.195312 12.527344 L 18.890625 17.835938 L 24.195312 23.140625 C 24.300781 23.246094 24.371094 23.378906 24.398438 23.523438 C 24.429688 23.667969 24.414062 23.820312 24.359375 23.957031 C 24.300781 24.09375 24.207031 24.210938 24.082031 24.292969 C 23.960938 24.375 23.816406 24.417969 23.667969 24.417969 C 23.570312 24.417969 23.472656 24.398438 23.378906 24.363281 C 23.289062 24.324219 23.207031 24.269531 23.136719 24.199219 Z M 23.136719 24.199219 "/>
</g>
</svg>
