<svg xmlns="http://www.w3.org/2000/svg" width="33" height="27" fill="none"><rect id="backgroundrect" width="100%" height="100%" x="0" y="0" fill="none" stroke="none"/>

<g class="currentLayer" style=""><title>Layer 1</title><path d="M6.71162 26.6104C6.46684 26.6085 6.23264 26.5107 6.05927 26.3379C5.88591 26.1651 5.78747 25.9303 5.78486 25.6855V13.749C5.78486 12.528 7.68487 12.528 7.59687 13.749V24.7607C11.7149 24.7607 26.2561 24.8037 26.2561 24.8037V13.8311C26.2561 13.5791 26.3557 13.3373 26.5339 13.1592C26.712 12.981 26.9538 12.8809 27.2058 12.8809C27.4577 12.8809 27.6995 12.981 27.8776 13.1592C28.0558 13.3373 28.156 13.5791 28.156 13.8311V25.7305C28.1539 25.9756 28.0555 26.2106 27.882 26.3838C27.7086 26.557 27.4738 26.6554 27.2287 26.6572C25.0757 26.6532 6.71162 26.6104 6.71162 26.6104ZM10.9499 17.3096C10.2029 16.5986 11.3406 15.4639 12.0866 16.1729C13.4056 17.4532 15.1718 18.1689 17.01 18.1689C18.8481 18.1689 20.6138 17.4532 21.9328 16.1729C22.6788 15.4639 23.817 16.5986 23.071 17.3096C21.43 18.8662 19.2585 19.7412 16.9968 19.7568C14.7427 19.7447 12.579 18.8695 10.9499 17.3115V17.3096ZM1.32099 11.9824L16.1047 0.251953C16.2916 0.0893797 16.5313 0 16.779 0C17.0267 0 17.2659 0.0893797 17.4528 0.251953C22.5488 4.16195 27.6172 8.07242 32.6579 11.9824C33.6269 12.7364 32.2788 14.0412 31.3098 13.3262C26.4431 9.59284 21.6025 5.85931 16.7878 2.12598L2.66963 13.3262C2.49841 13.4705 2.28176 13.5492 2.05781 13.5488C1.26581 13.5498 0.553992 12.5814 1.32099 11.9834V11.9824Z" fill="#0279ff" id="svg_1" class="" fill-opacity="1"/></g></svg>