<svg width="27" height="27" viewBox="0 0 27 27" fill="none" xmlns="http://www.w3.org/2000/svg">
<path d="M27 13.5C26.9963 17.0793 25.5726 20.5107 23.0416 23.0416C20.5107 25.5726 17.0793 26.9963 13.5 27C9.92076 26.9961 6.48928 25.5725 3.95837 23.0416C1.42747 20.5107 0.00387192 17.0792 0 13.5C0.00402069 9.92081 1.4275 6.48924 3.95837 3.95837C6.48924 1.4275 9.92081 0.00402069 13.5 0C17.0792 0.00387192 20.5107 1.42747 23.0416 3.95837C25.5725 6.48928 26.9961 9.92076 27 13.5ZM25.1999 13.5C25.1965 10.398 23.9628 7.42402 21.7694 5.23059C19.576 3.03716 16.602 1.80353 13.5 1.80011C10.3981 1.80368 7.42399 3.03719 5.23059 5.23059C3.03719 7.42399 1.80368 10.3981 1.80011 13.5C1.80368 16.6019 3.03719 19.576 5.23059 21.7694C7.42399 23.9628 10.3981 25.1963 13.5 25.1999C16.602 25.1965 19.576 23.9628 21.7694 21.7694C23.9628 19.576 25.1965 16.602 25.1999 13.5ZM14.7464 7.08728V8.88739H12.9463V7.08728H14.7464ZM14.7464 10.6875V19.6875H12.9463V10.6875H14.7464Z" fill="#0279FF"/>
</svg>
