<svg width="368" height="44" viewBox="0 0 368 44" fill="none" xmlns="http://www.w3.org/2000/svg">
<rect opacity="0.35" x="329.833" y="17.832" width="21" height="10.3333" rx="2.16667" stroke="white"/>
<path opacity="0.4" d="M352.333 21V25C353.138 24.6612 353.661 23.8731 353.661 23C353.661 22.1269 353.138 21.3388 352.333 21Z" fill="white"/>
<rect x="331.333" y="19.332" width="18" height="7.33333" rx="1.33333" fill="white"/>
<path fill-rule="evenodd" clip-rule="evenodd" d="M316.667 19.6165C318.892 19.6166 321.031 20.4707 322.644 22.0023C322.765 22.1206 322.959 22.1191 323.079 21.999L324.239 20.8286C324.3 20.7677 324.334 20.6852 324.333 20.5994C324.333 20.5135 324.298 20.4314 324.237 20.3712C320.005 16.319 313.329 16.319 309.097 20.3712C309.035 20.4314 309.001 20.5134 309 20.5993C308.999 20.6851 309.033 20.7677 309.094 20.8286L310.255 21.999C310.374 22.1192 310.568 22.1207 310.69 22.0023C312.302 20.4706 314.442 19.6165 316.667 19.6165ZM316.667 23.4241C317.889 23.424 319.068 23.878 319.974 24.6977C320.097 24.8141 320.29 24.8116 320.409 24.6921L321.569 23.5217C321.63 23.4603 321.663 23.3771 321.663 23.2905C321.662 23.204 321.626 23.1214 321.564 23.0613C318.805 20.4969 314.532 20.4969 311.773 23.0613C311.71 23.1214 311.675 23.204 311.674 23.2906C311.673 23.3772 311.707 23.4604 311.768 23.5217L312.927 24.6921C313.047 24.8116 313.24 24.8141 313.362 24.6977C314.268 23.8785 315.446 23.4246 316.667 23.4241ZM318.989 25.9859C318.991 26.0727 318.957 26.1564 318.895 26.2172L316.89 28.2392C316.831 28.2986 316.751 28.332 316.667 28.332C316.583 28.332 316.503 28.2986 316.445 28.2392L314.439 26.2172C314.377 26.1563 314.343 26.0726 314.345 25.9859C314.347 25.8991 314.384 25.8169 314.449 25.7587C315.729 24.6765 317.605 24.6765 318.886 25.7587C318.95 25.8169 318.988 25.8992 318.989 25.9859Z" fill="white"/>
<path fill-rule="evenodd" clip-rule="evenodd" d="M303 17.668H302C301.448 17.668 301 18.1157 301 18.668V27.3346C301 27.8869 301.448 28.3346 302 28.3346H303C303.552 28.3346 304 27.8869 304 27.3346V18.668C304 18.1157 303.552 17.668 303 17.668ZM297.333 20.0013H298.333C298.886 20.0013 299.333 20.449 299.333 21.0013V27.3346C299.333 27.8869 298.886 28.3346 298.333 28.3346H297.333C296.781 28.3346 296.333 27.8869 296.333 27.3346V21.0013C296.333 20.449 296.781 20.0013 297.333 20.0013ZM293.667 22.3346H292.667C292.114 22.3346 291.667 22.7824 291.667 23.3346V27.3346C291.667 27.8869 292.114 28.3346 292.667 28.3346H293.667C294.219 28.3346 294.667 27.8869 294.667 27.3346V23.3346C294.667 22.7824 294.219 22.3346 293.667 22.3346ZM289 24.3346H288C287.448 24.3346 287 24.7824 287 25.3346V27.3346C287 27.8869 287.448 28.3346 288 28.3346H289C289.552 28.3346 290 27.8869 290 27.3346V25.3346C290 24.7824 289.552 24.3346 289 24.3346Z" fill="white"/>
</svg>
