<svg width="131" height="59" viewBox="0 0 131 59" fill="none" xmlns="http://www.w3.org/2000/svg">
<path fill-rule="evenodd" clip-rule="evenodd" d="M1.74219 45.7734C1.625 45.1484 1.97656 44.8359 2.44531 44.8359H4.35938C4.94531 44.8359 5.17969 45.1094 5.33594 45.5781C6.66406 51.3203 11.8984 55.6562 19.2422 55.6562C29.9453 55.6562 36.1172 45.6172 36.625 29.6016C36.6641 28.5469 36.625 27.2578 36.625 26.125H36.5078C34.6719 33.0781 27.4062 38.5078 19.0469 38.5078C8.26562 38.5078 0.335938 30.6172 0.335938 20.1875C0.335938 9.09375 8.42188 0.773438 19.4766 0.773438C26.0391 0.773438 31.4688 3.74219 34.9453 8.82031C38.3047 13.4297 40.0625 19.9531 40.0625 28.3906C40.0625 47.0625 32.25 58.8203 19.2422 58.8203C10.0234 58.8203 3.42188 53.4688 1.74219 45.7734ZM35.3359 20.4219C35.3359 11.3203 28.5 4.01562 19.5156 4.01562C10.6094 4.01562 3.89062 10.9688 3.89062 20.1094C3.89062 28.5469 10.375 35.3438 19.4375 35.3438C28.2266 35.3438 35.3359 28.3906 35.3359 20.4219ZM53.1484 17.8047C51.5859 17.8047 50.3359 16.5156 50.3359 14.9922C50.3359 13.4297 51.5859 12.1797 53.1484 12.1797C54.7109 12.1797 55.9609 13.4297 55.9609 14.9922C55.9609 16.5156 54.7109 17.8047 53.1484 17.8047ZM53.1484 47.8828C51.5859 47.8828 50.3359 46.6328 50.3359 45.0703C50.3359 43.5078 51.5859 42.2578 53.1484 42.2578C54.7109 42.2578 55.9609 43.5078 55.9609 45.0703C55.9609 46.6328 54.7109 47.8828 53.1484 47.8828ZM94.4766 57.1016V44.1719H66.4297C65.8828 44.1719 65.5312 43.8203 65.5312 43.2734V41.3203C65.5312 40.9688 65.6094 40.7344 65.8047 40.4219C73.3828 28.5859 81.5859 16.75 92.3672 2.10156C92.6797 1.71094 92.9141 1.47656 93.5 1.47656H97.0547C97.5625 1.47656 97.9141 1.82812 97.9141 2.375V40.9688H105.883C106.43 40.9688 106.781 41.3203 106.781 41.8672V43.2734C106.781 43.8203 106.43 44.1719 105.883 44.1719H97.9141V57.1016C97.9141 57.6484 97.5625 58 97.0547 58H95.375C94.8281 58 94.4766 57.6484 94.4766 57.1016ZM69.3203 40.9688H94.4766V4.875H94.3984C84.7109 17.9219 76.3516 29.9922 69.3203 40.8906V40.9688ZM126.82 57.1016V5.57812H126.742C123.383 7.6875 116.859 12.0234 112.68 14.7188C112.172 15.0703 111.391 14.9141 111.391 14.2109V12.4531C111.391 11.7891 111.547 11.5938 112.016 11.2812C116 8.66406 121.859 4.75781 126.117 2.10156C126.547 1.82812 126.898 1.63281 127.523 1.63281H129.398C129.945 1.63281 130.297 1.98438 130.297 2.53125V57.1016C130.297 57.6484 129.945 58 129.398 58H127.719C127.172 58 126.82 57.6484 126.82 57.1016Z" fill="white"/>
</svg>
